<svg width="18" height="18" viewBox="0 0 18 18" fill="none" xmlns="http://www.w3.org/2000/svg">
<g id="&#227;&#130;&#176;&#227;&#131;&#171;&#227;&#131;&#188;&#227;&#131;&#151; 111">
<path id="&#227;&#131;&#145;&#227;&#130;&#185; 73" d="M9.00007 0C7.22004 0 5.48011 0.52784 4.00007 1.51677C2.52003 2.50571 1.36632 3.91132 0.685129 5.55585C0.00394052 7.20039 -0.174345 9.00998 0.172922 10.7558C0.520189 12.5016 1.37763 14.1053 2.6363 15.364C3.89497 16.6226 5.49838 17.4798 7.24421 17.8271C8.99004 18.1743 10.7999 17.9961 12.4444 17.3149C14.0889 16.6337 15.4945 15.4802 16.4835 14.0001C17.4724 12.5201 18.0001 10.78 18.0001 9C17.9974 6.61386 17.0482 4.32622 15.3609 2.63896C13.6737 0.951708 11.3862 0.00264685 9.00007 0V0ZM9.00007 16.695C7.47838 16.695 5.99091 16.2438 4.72566 15.3984C3.46041 14.553 2.47404 13.3514 1.89167 11.9456C1.3093 10.5398 1.15689 8.99281 1.45368 7.50034C1.75048 6.00788 2.48323 4.63694 3.55915 3.56087C4.63508 2.48481 6.00618 1.75195 7.49861 1.45496C8.99103 1.15797 10.538 1.3102 11.9439 1.89238C13.3498 2.47457 14.5515 3.46058 15.397 4.72572C16.2426 5.99086 16.6937 7.47831 16.6939 9C16.6926 11.0403 15.8816 12.9966 14.439 14.4394C12.9964 15.8821 11.0403 16.6934 9.00007 16.695Z" fill="white"/>
<path id="&#227;&#131;&#145;&#227;&#130;&#185; 74" d="M9.65268 7.98908V3.18408H8.35288V7.98908C8.20426 8.08708 8.07939 8.21693 7.98716 8.36919C7.89493 8.52146 7.83769 8.69234 7.81968 8.86945C7.80166 9.04656 7.82298 9.22546 7.88266 9.39318C7.94235 9.56091 8.03905 9.71325 8.16489 9.83917C8.29074 9.96509 8.44301 10.0614 8.61069 10.1212C8.77838 10.181 8.95701 10.2027 9.13413 10.1848C9.31125 10.1669 9.48229 10.1098 9.63462 10.0177C9.78694 9.92552 9.9169 9.80065 10.015 9.65208H13.3377V8.34708H10.016C9.92286 8.20412 9.80102 8.08218 9.65806 7.98908H9.65268Z" fill="white"/>
</g>
</svg>
