<svg width="20" height="19" viewBox="0 0 20 19" fill="none" xmlns="http://www.w3.org/2000/svg">
<path id="&#227;&#131;&#145;&#227;&#130;&#185; 79" d="M14.4466 10.768C14.3695 10.9055 14.3378 11.0639 14.3558 11.2206C14.3737 11.3773 14.4405 11.5244 14.5467 11.6409L18.5999 15.6949C18.7282 15.8196 18.83 15.9686 18.9002 16.1331C18.9704 16.2977 19.0074 16.4745 19.0086 16.6534C19.0099 16.8323 18.9754 17.0096 18.9075 17.1751C18.8397 17.3406 18.7396 17.491 18.6131 17.6175C18.4866 17.7439 18.3367 17.844 18.1712 17.9119C18.0057 17.9798 17.8281 18.0141 17.6492 18.0128C17.4704 18.0116 17.2938 17.9748 17.1292 17.9046C16.9647 17.8344 16.8155 17.7322 16.6908 17.604L12.637 13.5509C12.5197 13.4438 12.3716 13.3764 12.2137 13.3585C12.0559 13.3405 11.896 13.3729 11.7576 13.4509C11.6268 13.537 11.4897 13.6125 11.347 13.6769C9.81526 14.4221 8.06886 14.6001 6.41829 14.1792C4.76772 13.7584 3.3198 12.766 2.33187 11.3783C1.34393 9.99073 0.879854 8.29778 1.0223 6.60037C1.16474 4.90295 1.90432 3.31101 3.1097 2.10745C4.31508 0.903884 5.90816 0.166654 7.60579 0.0267707C9.30342 -0.113112 10.9955 0.353414 12.3817 1.34344C13.7678 2.33347 14.7582 3.78287 15.1766 5.43407C15.595 7.08528 15.4143 8.83133 14.6668 10.3619C14.6026 10.5031 14.5276 10.6392 14.4427 10.769L14.4466 10.768ZM8.20003 11.7C9.09005 11.7 9.96001 11.436 10.7 10.9416C11.4401 10.4471 12.0167 9.74429 12.3573 8.92203C12.6979 8.09976 12.7872 7.19496 12.6136 6.32204C12.44 5.44913 12.011 4.64731 11.3817 4.01797C10.7523 3.38863 9.95087 2.96005 9.07796 2.78641C8.20504 2.61278 7.30013 2.7019 6.47786 3.04249C5.65559 3.38309 4.9528 3.95986 4.45833 4.69988C3.96386 5.4399 3.70003 6.30993 3.70003 7.19995C3.70003 8.39342 4.17399 9.53802 5.0179 10.3819C5.86181 11.2258 7.00656 11.7 8.20003 11.7V11.7Z" fill="black"/>
</svg>
