<svg width="21" height="18" viewBox="0 0 21 18" fill="none" xmlns="http://www.w3.org/2000/svg">
<path id="&#227;&#131;&#145;&#227;&#130;&#185; 72" d="M10.1538 17.8939C10.2497 17.9628 10.3649 17.9998 10.4829 17.9999C10.6007 18 10.7156 17.9629 10.811 17.8939C12.592 16.6179 20.9648 10.3379 20.9648 5.16293C20.9648 -0.452074 13.1269 -2.06507 10.6909 3.23693C10.6713 3.27728 10.641 3.31131 10.603 3.33511C10.565 3.35892 10.5209 3.37154 10.4761 3.37154C10.4312 3.37154 10.3871 3.35892 10.3491 3.33511C10.3111 3.31131 10.2808 3.27728 10.2612 3.23693C7.77123 -2.00007 0 -0.450074 0 5.16293C0 10.3379 8.37381 16.6169 10.1538 17.8939Z" fill="#EE86A8"/>
</svg>
