<svg width="16" height="16" viewBox="0 0 16 16" fill="none" xmlns="http://www.w3.org/2000/svg">
<g id="&#227;&#130;&#176;&#227;&#131;&#171;&#227;&#131;&#188;&#227;&#131;&#151; 112">
<path id="&#227;&#131;&#145;&#227;&#130;&#185; 75" d="M14.2861 0H1.71387C1.25929 0 0.82339 0.180581 0.501953 0.502018C0.180516 0.823455 0 1.25942 0 1.714V14.286C0 14.7406 0.180516 15.1765 0.501953 15.498C0.82339 15.8194 1.25929 16 1.71387 16H14.2861C14.7407 16 15.1766 15.8194 15.498 15.498C15.8195 15.1765 16 14.7406 16 14.286V1.714C16 1.25942 15.8195 0.823455 15.498 0.502018C15.1766 0.180581 14.7407 0 14.2861 0V0ZM1.71387 1.143H14.2861C14.3612 1.14287 14.4355 1.15755 14.5049 1.1862C14.5742 1.21484 14.6369 1.2569 14.6899 1.30995C14.743 1.363 14.7853 1.42599 14.814 1.49533C14.8426 1.56467 14.8571 1.63898 14.8569 1.714V4.571H1.14307V1.714C1.14293 1.63898 1.15739 1.56467 1.18604 1.49533C1.21468 1.42599 1.25701 1.363 1.31006 1.30995C1.36311 1.2569 1.42578 1.21484 1.49512 1.1862C1.56445 1.15755 1.63885 1.14287 1.71387 1.143V1.143ZM14.2861 14.857H1.71387C1.63885 14.8571 1.56445 14.8425 1.49512 14.8138C1.42578 14.7852 1.36311 14.7431 1.31006 14.6901C1.25701 14.637 1.21468 14.574 1.18604 14.5047C1.15739 14.4353 1.14293 14.361 1.14307 14.286V5.714H14.8569V14.286C14.8571 14.361 14.8426 14.4353 14.814 14.5047C14.7853 14.574 14.743 14.637 14.6899 14.6901C14.6369 14.7431 14.5742 14.7852 14.5049 14.8138C14.4355 14.8425 14.3612 14.8571 14.2861 14.857V14.857Z" fill="white"/>
<path id="&#227;&#131;&#145;&#227;&#130;&#185; 76" d="M2.85693 3.4289H3.4292C3.57663 3.42273 3.71573 3.35983 3.81787 3.25332C3.92001 3.14682 3.97705 3.00496 3.97705 2.8574C3.97705 2.70984 3.92001 2.56798 3.81787 2.46148C3.71573 2.35498 3.57663 2.29207 3.4292 2.2859H2.85693C2.77987 2.28268 2.70301 2.29507 2.63086 2.32234C2.55871 2.34961 2.49268 2.39118 2.43701 2.44457C2.38134 2.49796 2.33739 2.56205 2.30713 2.63299C2.27687 2.70394 2.26123 2.78027 2.26123 2.8574C2.26123 2.93453 2.27687 3.01086 2.30713 3.08181C2.33739 3.15275 2.38134 3.21685 2.43701 3.27023C2.49268 3.32362 2.55871 3.3652 2.63086 3.39246C2.70301 3.41973 2.77987 3.43213 2.85693 3.4289V3.4289Z" fill="white"/>
<path id="&#227;&#131;&#145;&#227;&#130;&#185; 77" d="M5.71387 3.4289H6.28613C6.36319 3.43213 6.44006 3.41973 6.51221 3.39246C6.58436 3.3652 6.65039 3.32362 6.70605 3.27023C6.76172 3.21685 6.80568 3.15275 6.83594 3.08181C6.8662 3.01086 6.88184 2.93453 6.88184 2.8574C6.88184 2.78027 6.8662 2.70394 6.83594 2.63299C6.80568 2.56205 6.76172 2.49796 6.70605 2.44457C6.65039 2.39118 6.58436 2.34961 6.51221 2.32234C6.44006 2.29507 6.36319 2.28268 6.28613 2.2859H5.71387C5.56643 2.29207 5.42733 2.35498 5.3252 2.46148C5.22306 2.56798 5.16602 2.70984 5.16602 2.8574C5.16602 3.00496 5.22306 3.14682 5.3252 3.25332C5.42733 3.35983 5.56643 3.42273 5.71387 3.4289Z" fill="white"/>
<path id="&#227;&#131;&#145;&#227;&#130;&#185; 78" d="M10.3999 11.882C10.3641 11.8505 10.3248 11.8237 10.2823 11.802C10.7358 11.1561 10.9304 10.3636 10.8282 9.58098C10.7259 8.79838 10.3338 8.08257 9.72953 7.57487C9.12525 7.06717 8.35251 6.80448 7.564 6.83865C6.77549 6.87283 6.02882 7.2014 5.47074 7.75948C4.91265 8.31756 4.58402 9.06461 4.54984 9.85312C4.51566 10.6416 4.77798 11.4143 5.28568 12.0186C5.79338 12.6229 6.50943 13.0148 7.29203 13.1171C8.07462 13.2194 8.86727 13.0245 9.51322 12.571C9.53391 12.6145 9.5601 12.6548 9.59183 12.691L10.4493 13.548C10.5564 13.6552 10.7015 13.7154 10.8531 13.7154C11.0046 13.7154 11.1497 13.6552 11.2569 13.548C11.364 13.4409 11.4244 13.2955 11.4244 13.144C11.4244 12.9925 11.364 12.8472 11.2569 12.74L10.3999 11.882ZM7.71 12C7.24728 12.0001 6.7987 11.8398 6.44095 11.5463C6.08321 11.2528 5.83844 10.8444 5.74808 10.3906C5.65772 9.93678 5.7273 9.46568 5.94535 9.05756C6.16339 8.64944 6.51642 8.32955 6.94388 8.1524C7.37134 7.97525 7.84726 7.95179 8.29007 8.08603C8.73289 8.22028 9.11546 8.50391 9.37259 8.8886C9.62973 9.27329 9.74551 9.73524 9.70023 10.1957C9.65495 10.6562 9.4512 11.0868 9.12406 11.414C8.75005 11.7881 8.24291 11.9988 7.7139 12H7.71Z" fill="white"/>
</g>
</svg>
