<svg width="22" height="18" viewBox="0 0 22 18" fill="none" xmlns="http://www.w3.org/2000/svg">
<path id="&#227;&#131;&#145;&#227;&#130;&#185; 80" d="M21.0489 1.48801L20.3892 1.20101C19.1099 0.638211 17.7092 0.407302 16.3169 0.529662C14.9247 0.652022 13.5854 1.1237 12.4239 1.90101L11.3418 2.62401L10.2613 1.90101C9.10032 1.12396 7.76215 0.651796 6.37065 0.52806C4.97914 0.404324 3.57871 0.633005 2.29887 1.19301L1.63627 1.482C1.3531 1.60503 1.11191 1.80828 0.942913 2.06667C0.773915 2.32505 0.684331 2.62726 0.685101 2.93601V14.336C0.683171 14.5992 0.747617 14.8586 0.872601 15.0902C0.997585 15.3218 1.17891 15.5181 1.39994 15.661C1.62061 15.8066 1.87436 15.8946 2.13774 15.9171C2.40112 15.9397 2.66607 15.896 2.90825 15.79C3.95439 15.3323 5.09898 15.1455 6.23637 15.2467C7.37376 15.3479 8.46714 15.7338 9.41606 16.369C9.41606 16.369 10.907 17.369 10.983 17.409C11.1056 17.4749 11.2439 17.5057 11.3829 17.498C11.5206 17.491 11.6541 17.4471 11.7691 17.371L13.2691 16.371C14.2181 15.7351 15.3123 15.3489 16.4502 15.2483C17.5882 15.1476 18.7329 15.3356 19.7789 15.795C20.0205 15.9009 20.285 15.9447 20.5479 15.9226C20.8108 15.9005 21.0636 15.8132 21.2842 15.6685C21.5048 15.5238 21.6861 15.3263 21.8111 15.094C21.936 14.8617 22.0009 14.6018 22 14.338V2.93801C21.9997 2.62963 21.9094 2.32805 21.7403 2.07016C21.5712 1.81228 21.3306 1.60928 21.0479 1.48601L21.0489 1.48801ZM5.64018 13.7C4.48995 13.6984 3.35173 13.9368 2.29887 14.4L2.20707 14.339L2.24516 2.89001L2.90825 2.6C3.95374 2.14117 5.09753 1.95297 6.23491 2.05276C7.37228 2.15256 8.46644 2.53713 9.41606 3.17101L10.5811 3.95501V15.319L10.2613 15.099C8.89237 14.1876 7.28475 13.7005 5.64018 13.699V13.7ZM20.4493 14.393C20.4407 14.3994 20.4306 14.4032 20.42 14.4041C20.4094 14.405 20.3987 14.4029 20.3892 14.398C19.1093 13.8364 17.7082 13.6067 16.316 13.7301C14.9237 13.8536 13.585 14.3261 12.4239 15.104L12.104 15.317V3.95001L13.2691 3.17301C14.2182 2.53685 15.3126 2.15053 16.4507 2.04984C17.5889 1.94915 18.7338 2.13735 19.7798 2.59701L20.48 2.94101L20.4493 14.393Z" fill="black"/>
</svg>
