<svg width="30" height="30" viewBox="0 0 30 30" fill="none" xmlns="http://www.w3.org/2000/svg">
<path d="M22.4122 17.9459C22.2843 18.176 22.2322 18.4405 22.2632 18.7019C22.2943 18.9633 22.4068 19.2082 22.585 19.4019L29.3409 26.159C29.5498 26.3679 29.7156 26.616 29.8287 26.8889C29.9417 27.1619 30.0001 27.4545 30.0001 27.75C30.0001 28.0454 29.9417 28.338 29.8287 28.611C29.7156 28.884 29.5498 29.132 29.3409 29.341C29.1319 29.5499 28.8839 29.7156 28.6109 29.8287C28.3379 29.9418 28.0455 30 27.7501 30C27.4546 30 27.1622 29.9418 26.8892 29.8287C26.6162 29.7156 26.3682 29.5499 26.1592 29.341L19.4019 22.585C19.2066 22.4062 18.9599 22.2936 18.6968 22.2633C18.4338 22.2329 18.168 22.2864 17.9371 22.416C17.7189 22.5593 17.4898 22.6853 17.252 22.793C14.701 24.0333 11.793 24.3292 9.04449 23.6279C6.29595 22.9266 3.88476 21.2737 2.2398 18.9628C0.594841 16.6519 -0.177668 13.8326 0.0596247 11.006C0.296918 8.17936 1.52897 5.52832 3.53619 3.52401C5.5434 1.51969 8.19602 0.291878 11.023 0.0586751C13.85 -0.174528 16.6681 0.602024 18.9766 2.25033C21.2851 3.89863 22.9346 6.31194 23.6319 9.06148C24.3292 11.811 24.0292 14.7187 22.7852 17.268C22.6781 17.503 22.5534 17.7297 22.4122 17.9459V17.9459ZM12.0001 19.5C13.4834 19.5 14.9337 19.0601 16.167 18.236C17.4004 17.4119 18.3616 16.2405 18.9293 14.8701C19.4969 13.4996 19.6454 11.9916 19.356 10.5368C19.0666 9.08191 18.3522 7.74557 17.3033 6.69668C16.2544 5.64778 14.9183 4.93345 13.4634 4.64406C12.0086 4.35467 10.5004 4.50323 9.12994 5.07088C7.75949 5.63854 6.58833 6.59984 5.76421 7.83321C4.9401 9.06658 4.50005 10.5166 4.50005 12C4.50005 13.9891 5.29031 15.8967 6.69683 17.3032C8.10335 18.7098 10.0109 19.5 12.0001 19.5Z" fill="white"/>
</svg>
