<svg width="108" height="100" viewBox="0 0 108 100" fill="none" xmlns="http://www.w3.org/2000/svg">
<rect width="108" height="100" fill="#E5E5E5"/>
<g id="PC TOP 1" clip-path="url(#clip0_0_1)">
<g id="PC TOP">
<path id="Vector" d="M701 -2720H-899V1750H701V-2720Z" fill="white"/>
<g id="&#227;&#130;&#176;&#227;&#131;&#171;&#227;&#131;&#188;&#227;&#131;&#151; 3">
<g id="&#233;&#149;&#183;&#230;&#150;&#185;&#229;&#189;&#162; 47">
<path id="Vector_2" d="M177.413 -58.866H-75.413C-82.2906 -58.866 -87.866 -53.2906 -87.866 -46.413V286.413C-87.866 293.291 -82.2906 298.866 -75.413 298.866H177.413C184.291 298.866 189.866 293.291 189.866 286.413V-46.413C189.866 -53.2906 184.291 -58.866 177.413 -58.866Z" stroke="#DE5579" stroke-width="2.268" stroke-miterlimit="10"/>
</g>
<g id="&#227;&#130;&#176;&#227;&#131;&#171;&#227;&#131;&#188;&#227;&#131;&#151; 98">
<path id="&#227;&#131;&#145;&#227;&#130;&#185; 20" d="M58.8701 54.2661H7.48486C6.61508 54.266 5.75379 54.4372 4.9502 54.77C4.1466 55.1028 3.41679 55.5905 2.80176 56.2056C2.18673 56.8206 1.69851 57.5509 1.36572 58.3545C1.03293 59.1581 0.861685 60.0194 0.861816 60.8892V93.3628C0.862077 95.1205 1.55967 96.8066 2.80127 98.0508C4.04287 99.295 5.72713 99.996 7.48486 100H58.8701C60.6279 99.996 62.3124 99.295 63.5542 98.0508C64.796 96.8066 65.4936 95.1206 65.4941 93.3628V60.8892C65.4941 60.0193 65.3226 59.1581 64.9897 58.3545C64.6568 57.5509 64.1688 56.8206 63.5537 56.2056C62.9386 55.5906 62.2084 55.1028 61.4048 54.77C60.6011 54.4372 59.7399 54.266 58.8701 54.2661V54.2661ZM56.3379 59.8311L33.0601 77.9189L9.78223 59.8311H56.3379ZM59.9282 93.3638C59.928 93.6455 59.8166 93.9163 59.6187 94.1167C59.4207 94.3171 59.1518 94.4314 58.8701 94.4351H7.48486C7.20325 94.4314 6.93465 94.3167 6.73682 94.1162C6.53898 93.9158 6.4282 93.6454 6.42822 93.3638V64.2642L31.3472 83.5908C31.8347 83.9694 32.434 84.1753 33.0513 84.1753C33.6685 84.1753 34.2683 83.9694 34.7559 83.5908L59.9258 64.1118L59.9282 93.3638Z" fill="#808080"/>
<path id="&#227;&#131;&#145;&#227;&#130;&#185; 21" d="M104.841 59.5112H74.23C73.4919 59.5112 72.7841 59.8043 72.2622 60.3262C71.7403 60.8481 71.4468 61.5558 71.4468 62.2939C71.4468 63.032 71.7403 63.7398 72.2622 64.2617C72.7841 64.7836 73.4919 65.0771 74.23 65.0771H104.841C105.579 65.0771 106.287 64.7836 106.809 64.2617C107.331 63.7398 107.624 63.032 107.624 62.2939C107.624 61.5558 107.331 60.8481 106.809 60.3262C106.287 59.8043 105.579 59.5112 104.841 59.5112V59.5112Z" fill="#808080"/>
<path id="&#227;&#131;&#145;&#227;&#130;&#185; 22" d="M95.1001 74.8159H74.23C73.492 74.8159 72.7845 75.109 72.2627 75.6309C71.7409 76.1527 71.4473 76.8607 71.4473 77.5986C71.4473 78.3366 71.7409 79.0441 72.2627 79.5659C72.7845 80.0877 73.492 80.3809 74.23 80.3809H95.1001C95.8381 80.3809 96.5456 80.0877 97.0674 79.5659C97.5892 79.0441 97.8823 78.3366 97.8823 77.5986C97.8823 76.8607 97.5892 76.1527 97.0674 75.6309C96.5456 75.109 95.8381 74.8159 95.1001 74.8159Z" fill="#808080"/>
<path id="&#227;&#131;&#145;&#227;&#130;&#185; 23" d="M83.9702 90.1221H74.231C73.493 90.1221 72.7855 90.4152 72.2637 90.937C71.7419 91.4588 71.4487 92.1663 71.4487 92.9043C71.4487 93.6423 71.7419 94.3503 72.2637 94.8721C72.7855 95.3939 73.493 95.687 74.231 95.687H83.9702C84.7082 95.687 85.4157 95.3939 85.9375 94.8721C86.4593 94.3503 86.7524 93.6423 86.7524 92.9043C86.7524 92.1663 86.4593 91.4588 85.9375 90.937C85.4157 90.4152 84.7082 90.1221 83.9702 90.1221V90.1221Z" fill="#808080"/>
<path id="&#227;&#131;&#145;&#227;&#130;&#185; 24" d="M101 7.56872e-08H49.6172C48.7474 -0.000131282 47.8861 0.171116 47.0825 0.503906C46.2789 0.836697 45.5486 1.32442 44.9336 1.93945C44.3186 2.55448 43.8308 3.28478 43.498 4.08838C43.1653 4.89198 42.994 5.75327 42.9941 6.62305V39.1001C42.9936 40.8581 43.6909 42.5442 44.9326 43.7886C46.1744 45.033 47.8592 45.7336 49.6172 45.7368H101C102.758 45.7336 104.443 45.033 105.685 43.7886C106.926 42.5442 107.624 40.8581 107.623 39.1001V6.625C107.623 5.75505 107.452 4.89367 107.12 4.08984C106.787 3.28601 106.299 2.55567 105.684 1.94043C105.069 1.32519 104.339 0.836822 103.535 0.503906C102.731 0.170991 101.87 -0.000131386 101 7.56872e-08ZM98.7051 5.56494L75.4258 23.6538L52.1479 5.56494H98.7051ZM102.058 39.0981C102.058 39.3801 101.948 39.6509 101.75 39.8516C101.551 40.0523 101.282 40.1665 101 40.1699H49.6172C49.3352 40.1665 49.0658 40.0523 48.8677 39.8516C48.6696 39.6509 48.5588 39.3801 48.5591 39.0981V9.87793L73.729 29.3579C74.2168 29.7359 74.8165 29.9409 75.4336 29.9409C76.0507 29.9409 76.6504 29.7359 77.1382 29.3579L102.059 10L102.058 39.0981Z" fill="#808080"/>
<path id="&#227;&#131;&#145;&#227;&#130;&#185; 25" d="M3.64404 10.811H34.2549C34.9928 10.811 35.7008 10.5179 36.2227 9.99609C36.7445 9.47427 37.0376 8.76629 37.0376 8.02832C37.0376 7.29036 36.7445 6.58286 36.2227 6.06104C35.7008 5.53922 34.9928 5.24609 34.2549 5.24609H3.64404C2.90608 5.24609 2.19809 5.53922 1.67627 6.06104C1.15445 6.58286 0.861328 7.29036 0.861328 8.02832C0.861328 8.76629 1.15445 9.47427 1.67627 9.99609C2.19809 10.5179 2.90608 10.811 3.64404 10.811V10.811Z" fill="#808080"/>
<path id="&#227;&#131;&#145;&#227;&#130;&#185; 26" d="M34.2549 20.5508H13.3838C13.0139 20.5438 12.6465 20.6109 12.3027 20.7476C11.959 20.8843 11.6464 21.0881 11.3823 21.3472C11.1183 21.6063 10.9083 21.9153 10.7651 22.2564C10.622 22.5974 10.5483 22.9636 10.5483 23.3335C10.5483 23.7034 10.622 24.0696 10.7651 24.4107C10.9083 24.7517 11.1183 25.0608 11.3823 25.3198C11.6464 25.5789 11.959 25.7828 12.3027 25.9194C12.6465 26.0561 13.0139 26.1232 13.3838 26.1162H34.2549C34.9837 26.1024 35.6779 25.803 36.1885 25.2827C36.699 24.7624 36.9854 24.0625 36.9854 23.3335C36.9854 22.6045 36.699 21.9046 36.1885 21.3843C35.6779 20.864 34.9837 20.5646 34.2549 20.5508Z" fill="#808080"/>
<path id="&#227;&#131;&#145;&#227;&#130;&#185; 27" d="M34.2549 35.8569H24.5142C23.7761 35.8569 23.0678 36.1504 22.5459 36.6724C22.024 37.1943 21.731 37.902 21.731 38.6401C21.731 39.3782 22.024 40.086 22.5459 40.6079C23.0678 41.1298 23.7761 41.4229 24.5142 41.4229H34.2549C34.993 41.4229 35.7007 41.1298 36.2227 40.6079C36.7446 40.086 37.0381 39.3782 37.0381 38.6401C37.0381 37.902 36.7446 37.1943 36.2227 36.6724C35.7007 36.1504 34.993 35.8569 34.2549 35.8569Z" fill="#808080"/>
</g>
</g>
</g>
</g>
<defs>
<clipPath id="clip0_0_1">
<rect width="1600" height="4470" fill="white" transform="translate(-899 -2720)"/>
</clipPath>
</defs>
</svg>
