<svg width="80" height="80" viewBox="0 0 80 80" fill="none" xmlns="http://www.w3.org/2000/svg">
<path d="M78.7671 72.813C79.5448 73.6052 79.9783 74.6722 79.9732 75.7822C79.9681 76.8923 79.5247 77.9558 78.7398 78.7407C77.9548 79.5257 76.8914 79.969 75.7813 79.9741C74.6712 79.9793 73.6042 79.5458 72.812 78.7681L52.2119 58.168C51.7866 57.7715 51.242 57.5269 50.6631 57.4727C50.0842 57.4184 49.5038 57.5577 49.0122 57.8682C48.4394 58.2851 47.8409 58.6652 47.2202 59.0069C40.5762 62.7944 32.7826 64.0413 25.2886 62.5152C17.7946 60.989 11.1098 56.7937 6.47611 50.7095C1.84241 44.6253 -0.424931 37.0661 0.0957345 29.4361C0.6164 21.806 3.88991 14.6244 9.30716 9.22609C14.7244 3.82777 21.917 0.579426 29.5489 0.0854675C37.1807 -0.408491 44.7324 1.88558 50.8003 6.54055C56.8683 11.1955 61.0397 17.8948 62.5396 25.3941C64.0395 32.8933 62.7659 40.6823 58.9551 47.313C58.6349 47.8925 58.2787 48.4512 57.8882 48.9859C57.5658 49.4762 57.4176 50.0609 57.4678 50.6455C57.5181 51.2302 57.7637 51.7809 58.1651 52.209L78.7671 72.813ZM31.5791 54.7368C36.1593 54.7366 40.6367 53.3783 44.4449 50.8335C48.253 48.2888 51.221 44.672 52.9737 40.4404C54.7263 36.2089 55.1847 31.5527 54.291 27.0606C53.3974 22.5684 51.1914 18.4422 47.9527 15.2036C44.7139 11.965 40.5879 9.75922 36.0957 8.86574C31.6035 7.97227 26.9474 8.4313 22.7159 10.1841C18.4843 11.9369 14.8674 14.9051 12.3228 18.7134C9.7782 22.5217 8.41995 26.9989 8.41995 31.5791C8.41969 34.6204 9.01839 37.6321 10.1822 40.4419C11.3459 43.2518 13.0521 45.8046 15.2027 47.9551C17.3532 50.1056 19.9064 51.8115 22.7163 52.9751C25.5262 54.1388 28.5378 54.7372 31.5791 54.7368V54.7368Z" fill="#808080"/>
</svg>
