<svg width="109" height="111" viewBox="0 0 109 111" fill="none" xmlns="http://www.w3.org/2000/svg">
<rect width="109" height="111" fill="#E5E5E5"/>
<g id="PC TOP 1" clip-path="url(#clip0_0_1)">
<g id="PC TOP">
<path id="Vector" d="M411 -2714H-1189V1756H411V-2714Z" fill="white"/>
<g id="&#227;&#130;&#176;&#227;&#131;&#171;&#227;&#131;&#188;&#227;&#131;&#151; 3">
<g id="&#233;&#149;&#183;&#230;&#150;&#185;&#229;&#189;&#162; 48">
<path id="Vector_2" d="M187.413 -52.866H-65.413C-72.2906 -52.866 -77.866 -47.2906 -77.866 -40.413V292.413C-77.866 299.291 -72.2906 304.866 -65.413 304.866H187.413C194.291 304.866 199.866 299.291 199.866 292.413V-40.413C199.866 -47.2906 194.291 -52.866 187.413 -52.866Z" stroke="#DE5579" stroke-width="2.268" stroke-miterlimit="10"/>
</g>
<g id="&#227;&#130;&#176;&#227;&#131;&#171;&#227;&#131;&#188;&#227;&#131;&#151; 99">
<path id="&#227;&#131;&#145;&#227;&#130;&#185; 28" d="M36 100.015C35.4427 100.017 34.9059 99.8065 34.4976 99.4272C34.0892 99.048 33.8396 98.528 33.7998 97.9722C31.8668 69.8722 30.9881 68.996 2.89014 67.062C2.59126 67.0789 2.29191 67.0344 2.01074 66.9316C1.72958 66.8289 1.47244 66.67 1.25488 66.4644C1.03732 66.2587 0.864053 66.0108 0.745605 65.7358C0.627158 65.4609 0.565918 65.1651 0.565918 64.8657C0.565918 64.5664 0.627158 64.27 0.745605 63.9951C0.864053 63.7202 1.03732 63.4722 1.25488 63.2666C1.47244 63.061 1.72958 62.9021 2.01074 62.7993C2.29191 62.6966 2.59126 62.6521 2.89014 62.6689C30.9901 60.7349 31.8668 59.8568 33.7998 31.7578C33.8292 31.195 34.0736 30.6653 34.4824 30.2773C34.8912 29.8894 35.4335 29.6729 35.9971 29.6729C36.5607 29.6729 37.1029 29.8894 37.5117 30.2773C37.9205 30.6653 38.1644 31.195 38.1938 31.7578C40.1268 59.8578 41.006 60.7349 69.104 62.6689C69.4029 62.6521 69.7022 62.6966 69.9834 62.7993C70.2646 62.9021 70.5217 63.061 70.7393 63.2666C70.9568 63.4722 71.1301 63.7202 71.2485 63.9951C71.367 64.27 71.4282 64.5664 71.4282 64.8657C71.4282 65.1651 71.367 65.4609 71.2485 65.7358C71.1301 66.0108 70.9568 66.2587 70.7393 66.4644C70.5217 66.67 70.2646 66.8289 69.9834 66.9316C69.7022 67.0344 69.4029 67.0789 69.104 67.062C41.004 68.995 40.1268 69.8742 38.1938 97.9722C38.1541 98.528 37.9049 99.048 37.4966 99.4272C37.0882 99.8065 36.5514 100.017 35.9941 100.015H36ZM21.5889 64.8652C30.2009 66.8862 33.98 70.6649 36 79.2759C38.021 70.6639 41.8001 66.8852 50.4111 64.8652C41.7991 62.8432 38.02 59.0651 36 50.4531C33.979 59.0641 30.1999 62.8432 21.5889 64.8652V64.8652Z" fill="#808080"/>
<path id="&#227;&#131;&#145;&#227;&#130;&#185; 29" d="M79.938 53.8799C79.3807 53.8813 78.8439 53.6712 78.4355 53.292C78.0272 52.9128 77.7776 52.3928 77.7378 51.8369C76.3308 31.5149 75.9378 31.1199 55.6138 29.7139C55.3156 29.7295 55.0174 29.6844 54.7373 29.5811C54.4572 29.4777 54.2014 29.3183 53.9849 29.1128C53.7683 28.9073 53.5954 28.6596 53.4775 28.3853C53.3597 28.1109 53.2993 27.8157 53.2993 27.5171C53.2993 27.2185 53.3597 26.9228 53.4775 26.6484C53.5954 26.3741 53.7683 26.1269 53.9849 25.9214C54.2014 25.7158 54.4572 25.5565 54.7373 25.4531C55.0174 25.3498 55.3156 25.3042 55.6138 25.3198C75.9358 23.9138 76.3308 23.5198 77.7378 3.19678C77.7209 2.8979 77.7654 2.59904 77.8682 2.31787C77.9709 2.03671 78.1298 1.77957 78.3354 1.56201C78.5411 1.34445 78.789 1.17118 79.064 1.05273C79.3389 0.934287 79.6352 0.873047 79.9346 0.873047C80.2339 0.873047 80.5303 0.934287 80.8052 1.05273C81.0801 1.17118 81.3276 1.34445 81.5332 1.56201C81.7388 1.77957 81.8982 2.03671 82.001 2.31787C82.1037 2.59904 82.1477 2.8979 82.1309 3.19678C83.5379 23.5188 83.9309 23.9138 104.255 25.3198C104.818 25.3492 105.348 25.5937 105.736 26.0024C106.124 26.4112 106.34 26.9535 106.34 27.5171C106.34 28.0807 106.124 28.6225 105.736 29.0312C105.348 29.44 104.818 29.6844 104.255 29.7139C83.9329 31.1199 83.5379 31.5139 82.1309 51.8369C82.0911 52.3928 81.8419 52.9128 81.4336 53.292C81.0252 53.6712 80.4884 53.8813 79.9312 53.8799H79.938ZM71.7002 27.5171C71.2337 28.3179 70.958 29.2155 70.895 30.1401C70.8321 31.0648 70.9832 31.9915 71.3369 32.8481C71.6906 33.7048 72.2372 34.4682 72.9341 35.0791C73.631 35.69 74.4594 36.1321 75.355 36.3706C76.2506 36.6091 77.1892 36.6376 78.0977 36.4541C79.0061 36.2706 79.8599 35.8798 80.5928 35.3125C81.3256 34.7452 81.9176 34.0166 82.3228 33.1831C82.7279 32.3496 82.9357 31.4336 82.9292 30.5068C83.457 30.8197 84.0578 30.9874 84.6714 30.9927C85.2849 30.998 85.8892 30.8408 86.4224 30.5371C86.9555 30.2334 87.3987 29.7942 87.707 29.2637C88.0154 28.7332 88.1777 28.1307 88.1777 27.5171C88.1777 26.9035 88.0154 26.301 87.707 25.7705C87.3987 25.24 86.9555 24.8003 86.4224 24.4966C85.8892 24.1929 85.2849 24.0357 84.6714 24.041C84.0578 24.0463 83.457 24.2139 82.9292 24.5269C83.2419 23.9991 83.4094 23.3981 83.4146 22.7847C83.4197 22.1712 83.2622 21.5672 82.9585 21.0342C82.6548 20.5012 82.2155 20.0578 81.6851 19.7495C81.1546 19.4413 80.552 19.2793 79.9385 19.2793C79.325 19.2793 78.7223 19.4413 78.1919 19.7495C77.6615 20.0578 77.2222 20.5012 76.9185 21.0342C76.6147 21.5672 76.4572 22.1712 76.4624 22.7847C76.4676 23.3981 76.6355 23.9991 76.9482 24.5269C75.4987 25.9761 73.686 27.009 71.7002 27.5171V27.5171Z" fill="#808080"/>
<path id="&#227;&#131;&#145;&#227;&#130;&#185; 30" d="M87.6289 111C87.0716 111.001 86.5348 110.791 86.1265 110.412C85.7181 110.033 85.469 109.513 85.4292 108.957C84.3522 93.425 84.3519 93.4252 68.7979 92.3262C68.235 92.2967 67.7049 92.0523 67.3169 91.6436C66.9289 91.2348 66.7129 90.6925 66.7129 90.1289C66.7129 89.5653 66.9289 89.0235 67.3169 88.6147C67.7049 88.206 68.235 87.9616 68.7979 87.9321C84.3519 86.8321 84.3522 86.8318 85.4292 71.3018C85.4586 70.7389 85.7025 70.2093 86.1113 69.8213C86.5201 69.4333 87.0624 69.2168 87.626 69.2168C88.1896 69.2168 88.7318 69.4333 89.1406 69.8213C89.5494 70.2093 89.7938 70.7389 89.8232 71.3018C90.9002 86.8558 90.9001 86.8561 106.454 87.9321C107.017 87.9616 107.547 88.206 107.935 88.6147C108.323 89.0235 108.539 89.5653 108.539 90.1289C108.539 90.6925 108.323 91.2348 107.935 91.6436C107.547 92.0523 107.017 92.2967 106.454 92.3262C90.9001 93.4262 90.9002 93.426 89.8232 108.957C89.7835 109.513 89.5338 110.033 89.1255 110.412C88.7171 110.791 88.1803 111.001 87.623 111H87.6289ZM82.6421 90.1289C82.6421 91.4515 83.1673 92.72 84.1025 93.6553C85.0378 94.5905 86.3063 95.1162 87.6289 95.1162C88.9515 95.1162 90.22 94.5905 91.1553 93.6553C92.0905 92.72 92.6162 91.4515 92.6162 90.1289C92.6162 88.8063 92.0905 87.5378 91.1553 86.6025C90.22 85.6673 88.9515 85.1421 87.6289 85.1421C86.3063 85.1421 85.0378 85.6673 84.1025 86.6025C83.1673 87.5378 82.6421 88.8063 82.6421 90.1289V90.1289Z" fill="#808080"/>
</g>
</g>
</g>
</g>
<defs>
<clipPath id="clip0_0_1">
<rect width="1600" height="4470" fill="white" transform="translate(-1189 -2714)"/>
</clipPath>
</defs>
</svg>
