<svg width="46" height="143" viewBox="0 0 46 143" fill="none" xmlns="http://www.w3.org/2000/svg">
<path id="&#227;&#131;&#145;&#227;&#130;&#185; 67" d="M14.35 139.9C11.8663 139.293 9.52953 138.195 7.47792 136.669C8.38129 135.89 9.45952 135.341 10.621 135.07C11.7825 134.798 12.9926 134.811 14.1478 135.108C17.1338 135.977 17.3479 137.808 20.6059 139.979C21.3059 140.449 21.4061 140.764 20.5761 141.091C17.0981 142.46 13.7499 143.291 10.7709 142.427C7.62889 141.509 6.33405 139.203 6.91005 137.494C9.06566 139.078 11.6754 139.922 14.35 139.9V139.9ZM5.10097 128.613C5.10748 130.672 5.44869 132.715 6.11171 134.664C7.56371 134.245 8.79296 132.479 8.78896 129.864C8.79796 127.429 7.52011 126.794 6.57411 124.043C6.04811 122.496 6.03101 122.919 5.47401 123.632C3.67401 125.978 2.31888 128.359 2.31288 130.823C2.30388 133.484 3.81275 135.023 5.27675 134.96C4.53235 132.92 4.47048 130.694 5.09999 128.616L5.10097 128.613ZM16.3207 129.513C16.1537 131.25 17.8789 133.138 21.0399 133.313C24.0399 133.471 27.0068 131.956 29.9838 129.904C30.6948 129.413 30.534 129.138 29.768 128.851C26.224 127.52 25.6201 125.842 22.6171 125.677C21.4658 125.648 20.3246 125.898 19.2909 126.405C18.2572 126.913 17.3617 127.663 16.681 128.592C18.9464 129.581 21.3855 130.109 23.8568 130.146C21.3428 130.755 18.699 130.535 16.3207 129.517V129.513ZM12.6698 121.544C13.1335 123.481 13.9107 125.329 14.9701 127.015C16.2461 126.302 16.9918 124.377 16.4208 121.915C15.8898 119.615 14.553 119.302 13.059 116.915C12.223 115.573 12.2989 115.974 11.9369 116.767C10.7539 119.373 10.003 121.911 10.537 124.235C11.11 126.744 12.8677 127.864 14.2367 127.482C13.0854 125.726 12.5355 123.644 12.6698 121.548V121.544ZM23.9838 119.423C24.1678 121.099 26.1707 122.546 29.1947 122.089C32.0567 121.649 34.5708 119.632 36.9818 117.104C37.5588 116.504 37.3527 116.271 36.5707 116.151C32.9567 115.59 32.056 114.121 29.182 114.551C28.0899 114.747 27.0614 115.204 26.184 115.883C25.3066 116.562 24.6062 117.443 24.143 118.451C26.4788 118.944 28.8887 118.97 31.2348 118.529C28.9783 119.604 26.4343 119.919 23.9838 119.427V119.423ZM18.9618 112.604C19.7844 114.343 20.8879 115.935 22.2279 117.316C23.2929 116.392 23.604 114.435 22.579 112.216C21.626 110.153 20.2979 110.116 18.4149 108.154C17.3619 107.049 17.5151 107.413 17.3241 108.234C16.7181 110.934 16.5091 113.48 17.4711 115.573C18.5071 117.832 20.3888 118.546 21.6088 117.915C20.1744 116.48 19.2454 114.617 18.9618 112.608V112.604ZM29.8617 107.77C30.3187 109.331 32.4681 110.37 35.2621 109.419C37.9071 108.519 39.9518 106.172 41.8148 103.363C42.2578 102.693 42.0241 102.509 41.2621 102.526C37.7351 102.608 36.6271 101.365 33.9721 102.266C32.9691 102.634 32.0699 103.239 31.3515 104.03C30.633 104.821 30.1166 105.774 29.8461 106.807C32.1478 106.883 34.4419 106.507 36.599 105.7C34.6368 107.101 32.2737 107.828 29.8637 107.774L29.8617 107.77ZM23.933 102.146C25.0147 103.655 26.3378 104.975 27.849 106.053C28.705 104.993 28.6491 103.097 27.3041 101.164C26.0481 99.3641 24.78 99.5541 22.66 98.0121C21.471 97.1401 21.6761 97.4602 21.6371 98.2732C21.5191 100.937 21.7509 103.394 23.0209 105.22C24.3899 107.19 26.298 107.548 27.349 106.741C25.7434 105.621 24.5451 104.01 23.935 102.15L23.933 102.146ZM33.9911 95.0461C34.6541 96.4661 36.849 97.1392 39.372 95.8332C41.763 94.5882 43.3717 92.0591 44.7377 89.1121C45.0647 88.4121 44.8127 88.2682 44.0897 88.3982C40.7427 88.9872 39.5068 87.9621 37.1078 89.2061C36.2069 89.6981 35.4383 90.4007 34.8676 91.2539C34.2968 92.1071 33.9409 93.0856 33.83 94.1061C36.0332 93.8479 38.1652 93.1642 40.1078 92.0931C38.4427 93.7139 36.2974 94.7514 33.9931 95.0501L33.9911 95.0461ZM27.5267 90.5461C28.7806 91.8226 30.237 92.8829 31.8368 93.6841C32.5008 92.5511 32.1601 90.7681 30.5961 89.1231C29.1381 87.5911 27.9567 87.9602 25.7147 86.7942C24.4547 86.1402 24.6957 86.4111 24.7767 87.1941C25.0437 89.7501 25.6299 92.0561 27.1039 93.6121C28.6939 95.2881 30.5631 95.3552 31.4481 94.4322C29.7556 93.5971 28.3798 92.2347 27.5287 90.5501L27.5267 90.5461ZM36.2328 81.9951C37.0438 83.2671 39.2237 83.6321 41.4657 82.0671C43.5877 80.5781 44.8047 77.9671 45.7367 74.9791C45.9577 74.2681 45.7017 74.1641 45.0287 74.3791C41.9097 75.3621 40.6011 74.5411 38.4691 76.0301C37.6718 76.609 37.0263 77.3723 36.5883 78.2549C36.1503 79.1375 35.9327 80.1131 35.954 81.0982C38.0228 80.5776 39.972 79.664 41.6957 78.4071C40.3116 80.1636 38.3956 81.4242 36.2348 82.0001L36.2328 81.9951ZM29.5009 78.5191C30.8619 79.5731 32.3884 80.3943 34.018 80.9492C34.507 79.7842 33.948 78.1491 32.246 76.7741C30.663 75.4961 29.5827 75.9991 27.2977 75.1741C26.0127 74.7081 26.277 74.9362 26.454 75.6692C27.032 78.0692 27.8788 80.2011 29.4828 81.4981C31.2098 82.8981 33.0009 82.7251 33.7289 81.7331C32.0086 81.1497 30.5245 80.0231 29.4999 78.5231L29.5009 78.5191ZM36.7011 69.3281C37.6201 70.4501 39.7421 70.5511 41.7011 68.8021C43.5581 67.1401 44.4201 64.5081 44.9721 61.5541C45.1011 60.8541 44.845 60.7841 44.226 61.0651C41.365 62.3651 40.0257 61.7211 38.1557 63.3841C37.4611 64.0232 36.9314 64.8208 36.6117 65.7088C36.292 66.5968 36.1919 67.549 36.3197 68.4841C38.2355 67.7568 39.995 66.6707 41.5038 65.2841C40.3845 67.1166 38.7015 68.5369 36.7069 69.3321L36.7011 69.3281ZM29.8827 66.7761C31.3045 67.6226 32.8577 68.2262 34.4779 68.5621C34.8139 67.3941 34.0841 65.9131 32.3031 64.7991C30.6511 63.7581 29.6757 64.3581 27.4027 63.8311C26.1257 63.5311 26.4027 63.7201 26.6537 64.4011C27.4777 66.6291 28.5289 68.5611 30.2069 69.6181C32.0139 70.7561 33.7071 70.3881 34.2841 69.3581C32.5786 68.9973 31.0363 68.0926 29.8891 66.7801L29.8827 66.7761ZM35.5448 56.3242C36.5448 57.2962 38.5728 57.1641 40.2528 55.2871C41.8438 53.5041 42.3837 50.9021 42.5917 48.0281C42.6417 47.3451 42.3919 47.3072 41.8309 47.6412C39.2439 49.1872 37.8938 48.7191 36.2938 50.5041C35.7002 51.1834 35.2793 51.996 35.0673 52.8728C34.8552 53.7496 34.8585 54.6647 35.0761 55.5401C36.8251 54.6457 38.3899 53.4299 39.6889 51.9561C38.8187 53.8227 37.3666 55.3567 35.5507 56.3281L35.5448 56.3242ZM28.7719 54.6241C30.2207 55.273 31.7684 55.6739 33.35 55.8101C33.545 54.6621 32.6831 53.3511 30.8671 52.4801C29.1791 51.6651 28.3147 52.3472 26.0897 52.0852C24.8397 51.9372 25.1229 52.0851 25.4359 52.7081C26.4609 54.7441 27.6697 56.4721 29.3837 57.2991C31.2277 58.1901 32.7971 57.6582 33.2401 56.6132C31.5771 56.4522 30.0108 55.7556 28.7777 54.6282L28.7719 54.6241ZM32.872 43.6441C33.925 44.4621 35.8451 44.1192 37.2421 42.1542C38.5641 40.2882 38.8008 37.7541 38.6918 34.9971C38.6638 34.3421 38.4197 34.3341 37.9247 34.7111C35.6307 36.4601 34.2938 36.1561 32.9638 38.0261C32.4704 38.731 32.1546 39.5446 32.0434 40.3978C31.9321 41.2509 32.029 42.1183 32.3251 42.9261C33.8957 41.8922 35.26 40.5748 36.348 39.0411C35.7218 40.9117 34.5048 42.5284 32.8808 43.6481L32.872 43.6441ZM26.247 42.7501C27.6975 43.2058 29.2142 43.4137 30.7338 43.3652C30.7968 42.2512 29.8341 41.1222 28.0111 40.4882C26.3191 39.8882 25.5697 40.6331 23.4247 40.6221C22.2197 40.6161 22.505 40.7221 22.869 41.2831C23.8179 43.0252 25.3085 44.4107 27.1151 45.2301C28.9651 45.8811 30.4007 45.2081 30.7147 44.1651C29.115 44.1892 27.5505 43.6942 26.2558 42.7541L26.247 42.7501ZM28.7279 31.6351C29.8189 32.2921 31.6009 31.7512 32.7059 29.7292C33.7499 27.8102 33.6888 25.3781 33.2728 22.7741C33.1728 22.1561 32.9421 22.1741 32.5141 22.5901C30.5371 24.5101 29.2311 24.3701 28.1801 26.2951C27.7902 27.0148 27.5798 27.818 27.5673 28.6363C27.5547 29.4547 27.7402 30.2639 28.1078 30.9951C29.4842 29.8415 30.6366 28.4446 31.5077 26.8741C31.1249 28.7208 30.1524 30.3931 28.7367 31.6392L28.7279 31.6351ZM22.3407 31.5352C23.7702 31.796 25.2337 31.813 26.6688 31.5852C26.6048 30.5222 25.5587 29.5851 23.7577 29.1851C22.0857 28.8111 21.4577 29.5981 19.4227 29.8311C18.2797 29.9601 18.5611 30.0311 18.9701 30.5211C20.0673 32.068 21.6387 33.2147 23.4467 33.7871C25.2727 34.1951 26.5587 33.3951 26.7367 32.3701C25.223 32.5742 23.6842 32.2826 22.35 31.5391L22.3407 31.5352ZM23.2411 20.6291C24.3561 21.1131 25.9741 20.3781 26.7611 18.3291C27.5051 16.3831 27.1418 14.0921 26.4218 11.6831C26.2498 11.1111 26.033 11.1601 25.681 11.6051C24.055 13.6681 22.8027 13.7051 22.0497 15.6521C21.7695 16.3778 21.6687 17.1604 21.7558 17.9334C21.8428 18.7064 22.1151 19.447 22.5497 20.0921C23.7085 18.832 24.6294 17.372 25.267 15.7832C25.1364 17.5762 24.4268 19.2784 23.245 20.6331L23.2411 20.6291ZM17.1918 21.3392C18.5783 21.3993 19.965 21.2221 21.2919 20.8151C21.0919 19.8151 19.9917 19.0931 18.2387 18.9421C16.6137 18.8011 16.121 19.6252 14.226 20.1002C13.16 20.3672 13.4337 20.4001 13.8817 20.8101C15.1145 22.1334 16.7448 23.0191 18.5258 23.3331C20.3038 23.4881 21.4179 22.5701 21.4559 21.5781C20.0492 21.9618 18.5561 21.8794 17.2001 21.3431L17.1918 21.3392ZM16.5097 10.9391C17.6277 11.2301 19.0389 10.3011 19.4769 8.25915C19.8889 6.32015 19.2107 4.22215 18.1767 2.05915C17.9317 1.54915 17.7321 1.62515 17.4711 2.09715C16.2371 4.26915 15.0707 4.49015 14.6547 6.43415C14.4955 7.15331 14.5125 7.90026 14.704 8.61149C14.8955 9.32272 15.256 9.97716 15.7548 10.5191C16.6623 9.16808 17.3216 7.66584 17.7011 6.08314C17.8424 7.78833 17.4258 9.49327 16.5141 10.9411L16.5097 10.9391ZM10.9301 12.4981C12.2398 12.3421 13.5126 11.9623 14.6937 11.3751C14.3637 10.4661 13.225 9.97514 11.556 10.0941C10.008 10.2001 9.66595 11.0421 7.95595 11.7731C6.99395 12.1731 7.25569 12.1732 7.73769 12.4902C9.09208 13.5503 10.7544 14.1419 12.474 14.1761C14.167 14.0601 15.0737 13.0331 14.9667 12.0961C13.7014 12.6634 12.2866 12.8052 10.934 12.5001L10.9301 12.4981ZM8.12978 2.69814C9.30747 3.47594 10.3673 4.41891 11.2767 5.49815C10.6591 5.81722 9.962 5.94932 9.2704 5.87827C8.57881 5.80723 7.92263 5.53614 7.38271 5.09815C6.10771 4.17515 6.263 3.26614 5.183 1.72814C4.575 0.864144 4.79771 1.01414 5.38271 0.99914C7.10963 0.813554 8.85063 1.19248 10.3441 2.07914C11.7361 3.08614 12.0757 4.29615 11.4857 5.03915C10.6918 3.87513 9.4984 3.04287 8.13173 2.70014L8.12978 2.69814ZM9.6581 4.75215L10.8119 6.00515C11.1879 6.41415 11.6521 6.91814 12.1981 7.51014C12.7041 8.12814 13.2868 8.83814 13.9398 9.63314C14.6098 10.4111 15.2717 11.3431 16.0077 12.3451C16.3717 12.8451 16.7648 13.3631 17.1488 13.9131C17.5328 14.4631 17.9008 15.0542 18.2938 15.6542C18.6868 16.2542 19.1118 16.8632 19.5038 17.5182C19.8958 18.1732 20.291 18.8502 20.704 19.5442C21.554 20.9122 22.3039 22.4351 23.1449 23.9891C23.5759 24.7601 23.9319 25.5892 24.3349 26.4172C24.7379 27.2452 25.1457 28.0861 25.5277 28.9591C26.2527 30.7211 27.0838 32.5091 27.7538 34.4201C29.2616 38.3875 30.5323 42.441 31.559 46.5592C32.6437 50.9612 33.4663 55.4237 34.0228 59.9231C34.5474 64.5667 34.7814 69.2384 34.723 73.9111C34.5988 78.5722 34.1486 83.2189 33.3759 87.8171C33.1819 88.9521 32.9168 90.0692 32.6918 91.1872C32.5748 91.7452 32.4567 92.3011 32.3417 92.8561C32.1924 93.4041 32.0445 93.9501 31.8978 94.4941C31.5978 95.5801 31.3248 96.6671 31.0058 97.7311L29.9481 100.866C29.6261 101.913 29.1999 102.91 28.7919 103.904C28.3839 104.898 28.0058 105.892 27.5668 106.845C27.1061 107.791 26.6517 108.724 26.203 109.645C25.975 110.105 25.7648 110.571 25.5248 111.017C25.2848 111.463 25.0248 111.895 24.7758 112.329C24.2791 113.196 23.7903 114.052 23.309 114.897C22.803 115.725 22.2497 116.507 21.7357 117.297C21.2037 118.073 20.7281 118.866 20.1781 119.588C19.6281 120.31 19.0777 121.011 18.5477 121.701C17.5415 123.031 16.468 124.308 15.3309 125.527C14.7979 126.115 14.3037 126.711 13.7777 127.248L12.2108 128.779C10.2398 130.816 8.28982 132.341 6.75282 133.669C5.99982 134.351 5.2289 134.843 4.6039 135.324C3.9789 135.805 3.42566 136.19 2.98866 136.513L1.64296 137.503L1.55605 137.567C1.21445 137.819 0.98662 138.196 0.923233 138.616C0.859846 139.036 0.965711 139.464 1.21767 139.805C1.46962 140.147 1.84728 140.374 2.26698 140.438C2.68669 140.501 3.11435 140.395 3.45595 140.143L3.47694 140.128C3.47694 140.128 3.9558 139.762 4.8578 139.076L6.51601 137.812C7.15801 137.301 7.94371 136.777 8.71571 136.055C10.2937 134.647 12.2881 133.028 14.3051 130.876L15.9047 129.257C16.4407 128.689 16.9461 128.057 17.4911 127.44C18.6497 126.152 19.7427 124.807 20.766 123.409C21.3073 122.683 21.8582 121.942 22.4188 121.185C22.9768 120.427 23.4599 119.595 23.9979 118.785C24.5179 117.96 25.0758 117.139 25.5868 116.271L27.0619 113.585C27.3119 113.131 27.5628 112.674 27.8148 112.214C28.0538 111.748 28.2631 111.262 28.4931 110.783C28.9397 109.82 29.3926 108.846 29.8519 107.859C30.2899 106.866 30.6568 105.829 31.0678 104.8C31.4788 103.771 31.8909 102.731 32.2069 101.647C32.5489 100.573 32.8938 99.4908 33.2411 98.4001C33.5511 97.3001 33.8129 96.1761 34.1039 95.0551C34.2459 94.4931 34.3877 93.9298 34.5297 93.3651C34.6397 92.7931 34.7504 92.2195 34.8617 91.6442C35.0727 90.4932 35.3258 89.3441 35.5048 88.1771C36.2153 83.4628 36.5957 78.7045 36.643 73.9371C36.6215 69.1805 36.3024 64.4299 35.6879 59.7131C35.0467 55.1581 34.1358 50.6452 32.9599 46.1981C31.8498 42.0476 30.4946 37.9664 28.9017 33.9761C28.1897 32.0551 27.321 30.2591 26.557 28.4911C26.157 27.6161 25.716 26.7771 25.309 25.9411C24.902 25.1051 24.5089 24.2811 24.0629 23.5081C23.1879 21.9501 22.4049 20.4272 21.5209 19.0572L20.2758 17.0312C19.8678 16.3772 19.4258 15.7711 19.0228 15.1681C18.6198 14.5651 18.2229 13.9891 17.8349 13.4291C17.4469 12.8691 17.0351 12.3661 16.6571 11.8641C15.8981 10.8641 15.212 9.93715 14.516 9.15415C13.84 8.35415 13.2349 7.64815 12.7099 7.03015L11.2987 5.54815L10.1259 4.31515C10.0675 4.25269 9.98668 4.21596 9.90126 4.21305C9.81584 4.21015 9.73276 4.2413 9.6703 4.29965C9.60784 4.35799 9.57116 4.43876 9.56825 4.52418C9.56535 4.6096 9.59633 4.69269 9.65468 4.75515L9.6581 4.75215Z" fill="white"/>
</svg>
