<svg width="45" height="143" viewBox="0 0 45 143" fill="none" xmlns="http://www.w3.org/2000/svg">
<path id="&#227;&#131;&#145;&#227;&#130;&#185; 66" d="M38.9057 137.5C39.4827 139.209 38.1869 141.515 35.0449 142.433C32.0669 143.295 28.7191 142.466 25.2451 141.097C24.4131 140.77 24.5098 140.455 25.2148 139.985C28.4708 137.816 28.6868 135.985 31.6728 135.114C32.8281 134.817 34.0382 134.804 35.1997 135.076C36.3611 135.347 37.4393 135.896 38.3427 136.675C36.2911 138.201 33.9548 139.299 31.4712 139.906C34.1441 139.927 36.7517 139.083 38.9057 137.5V137.5ZM40.5341 134.968C42.0011 135.031 43.508 133.492 43.498 130.831C43.492 128.367 42.1389 125.986 40.3369 123.64C39.7859 122.927 39.7692 122.504 39.2422 124.051C38.2972 126.802 37.0188 127.437 37.0278 129.872C37.0278 132.485 38.253 134.251 39.705 134.672C40.3678 132.723 40.709 130.68 40.7158 128.621C41.3438 130.7 41.2803 132.926 40.5341 134.965V134.968ZM21.959 130.153C24.4306 130.116 26.8705 129.588 29.1362 128.599C28.4553 127.67 27.5595 126.92 26.5259 126.413C25.4922 125.905 24.3514 125.655 23.2002 125.684C20.2002 125.849 19.5918 127.527 16.0478 128.858C15.2828 129.145 15.122 129.42 15.833 129.911C18.809 131.963 21.7809 133.478 24.7759 133.32C27.9369 133.145 29.6621 131.257 29.4951 129.52C27.1169 130.538 24.4731 130.759 21.959 130.15V130.153ZM31.583 127.492C32.951 127.874 34.7092 126.754 35.2832 124.245C35.8172 121.921 35.0658 119.383 33.8828 116.777C33.5198 115.984 33.5972 115.583 32.7612 116.925C31.2672 119.309 29.9299 119.625 29.3979 121.925C28.8279 124.387 29.5731 126.312 30.8501 127.025C31.9091 125.339 32.6857 123.491 33.1499 121.554C33.2844 123.65 32.7345 125.733 31.583 127.489V127.492ZM14.583 118.546C16.9291 118.987 19.3389 118.961 21.6748 118.468C21.2116 117.46 20.5117 116.579 19.6342 115.9C18.7568 115.22 17.7284 114.764 16.6362 114.568C13.7632 114.133 12.861 115.602 9.24704 116.168C8.46604 116.288 8.25991 116.518 8.83591 117.121C11.2469 119.649 13.761 121.666 16.624 122.106C19.647 122.563 21.6499 121.116 21.8349 119.44C19.3835 119.933 16.8386 119.618 14.581 118.543L14.583 118.546ZM24.2099 117.923C25.4299 118.554 27.3101 117.84 28.3471 115.581C29.3101 113.488 29.1001 110.938 28.4941 108.242C28.3071 107.421 28.4568 107.057 27.4028 108.162C25.5208 110.122 24.1927 110.162 23.2387 112.224C22.2137 114.442 22.5248 116.399 23.5908 117.324C24.9305 115.943 26.034 114.351 26.8569 112.612C26.5724 114.622 25.6429 116.485 24.208 117.92L24.2099 117.923ZM9.21579 105.7C11.3729 106.507 13.6675 106.883 15.9692 106.807C15.6982 105.774 15.181 104.821 14.4624 104.03C13.7438 103.24 12.8447 102.634 11.8418 102.266C9.18677 101.366 8.08019 102.608 4.55319 102.526C3.79119 102.509 3.55297 102.693 3.99997 103.363C5.86197 106.172 7.90819 108.515 10.5532 109.419C13.3472 110.365 15.4951 109.331 15.9531 107.77C13.5428 107.826 11.1789 107.1 9.21579 105.7V105.7ZM18.4658 106.741C19.5168 107.548 21.4249 107.19 22.7939 105.22C24.0639 103.394 24.2942 100.937 24.1782 98.2732C24.1392 97.4602 24.3438 97.1401 23.1548 98.0121C21.0338 99.5541 19.7672 99.3641 18.5112 101.164C17.1622 103.097 17.1108 104.993 17.9658 106.053C19.4765 104.975 20.7992 103.655 21.8808 102.146C21.2718 104.009 20.0731 105.623 18.4658 106.745V106.741ZM5.70603 92.0951C7.64879 93.1659 9.78069 93.8495 11.9839 94.1081C11.8732 93.0876 11.5175 92.1089 10.9467 91.2557C10.376 90.4024 9.6071 89.7 8.70603 89.2082C6.30603 87.9642 5.07207 88.9891 1.72507 88.4001C1.00107 88.2701 0.750143 88.4122 1.07614 89.1142C2.44214 92.0612 4.05086 94.5901 6.44186 95.8351C8.96586 97.1411 11.1612 96.4681 11.8232 95.0481C9.51936 94.7518 7.37318 93.7176 5.70603 92.1002V92.0951ZM14.3672 94.4291C15.2512 95.3521 17.1199 95.2852 18.7109 93.6092C20.1839 92.0532 20.7701 89.7472 21.0371 87.1912C21.1191 86.4112 21.3591 86.1401 20.1001 86.7911C17.8581 87.9571 16.6762 87.5911 15.2192 89.1201C13.6552 90.7651 13.314 92.5481 13.978 93.6811C15.5775 92.8798 17.0336 91.8195 18.2871 90.5431C17.4371 92.2308 16.0613 93.5961 14.3672 94.4332V94.4291ZM4.11911 78.4081C5.84279 79.6651 7.79192 80.5787 9.86081 81.0991C9.88195 80.114 9.66421 79.1384 9.22604 78.2558C8.78788 77.3732 8.14271 76.6099 7.34519 76.0312C5.21419 74.5422 3.9051 75.3631 0.786103 74.3801C0.112103 74.1641 -0.143904 74.2681 0.0780956 74.9801C1.0091 77.9641 2.22611 80.5801 4.34811 82.0681C6.59111 83.6331 8.77003 83.2681 9.58103 81.9961C7.42094 81.423 5.50472 80.1656 4.11911 78.4121V78.4081ZM12.0859 81.7281C12.8139 82.7201 14.605 82.8931 16.331 81.4931C17.931 80.1931 18.7828 78.0691 19.3608 75.6641C19.5368 74.9311 19.8011 74.7032 18.5171 75.1692C16.2311 75.9992 15.1508 75.4961 13.5688 76.7691C11.8688 78.1421 11.3078 79.7791 11.7968 80.9441C13.4264 80.3892 14.9528 79.568 16.3139 78.5142C15.2909 80.0169 13.8069 81.1464 12.0859 81.7321V81.7281ZM4.30612 65.2851C5.81532 66.6717 7.57514 67.7578 9.49118 68.4851C9.61877 67.55 9.51838 66.5979 9.1987 65.7099C8.87902 64.8219 8.34911 64.0244 7.65476 63.3851C5.78876 61.7221 4.44496 62.3651 1.58396 61.0661C0.965955 60.7851 0.708838 60.8521 0.838838 61.5551C1.39084 64.5091 2.25286 67.1411 4.10886 68.8031C6.06886 70.5521 8.19086 70.4511 9.10886 69.3291C7.11345 68.5367 5.42864 67.1193 4.30612 65.2891V65.2851ZM11.5298 69.3581C12.1108 70.3881 13.7999 70.7581 15.6059 69.6181C17.2839 68.5611 18.3362 66.6291 19.1592 64.4011C19.4112 63.7201 19.6871 63.5311 18.4111 63.8311C16.1341 64.3581 15.1592 63.7581 13.5112 64.7991C11.7292 65.9131 10.9999 67.3991 11.3359 68.5621C12.9578 68.2265 14.5125 67.6229 15.936 66.7761C14.787 68.0936 13.2402 69.0013 11.5298 69.3621V69.3581ZM6.12204 51.9581C7.42068 53.4318 8.98511 54.6477 10.7339 55.5422C10.9521 54.6668 10.9555 53.7517 10.7436 52.8748C10.5317 51.9979 10.111 51.1852 9.51706 50.5061C7.91706 48.7211 6.56695 49.1892 3.97995 47.6432C3.42195 47.3092 3.16921 47.3431 3.21921 48.0301C3.42621 50.9041 3.96708 53.5061 5.55808 55.2891C7.23708 57.1661 9.27008 57.2981 10.2661 56.3261C8.44902 55.3572 6.99498 53.8253 6.12204 51.9602V51.9581ZM12.5698 56.6152C13.0138 57.6602 14.5828 58.1921 16.4258 57.3011C18.1408 56.4741 19.35 54.7462 20.375 52.7102C20.687 52.0872 20.9752 51.9392 19.7202 52.0872C17.4952 52.3492 16.6308 51.6671 14.9438 52.4821C13.1278 53.3531 12.2659 54.6641 12.4609 55.8121C14.0425 55.6759 15.5902 55.275 17.039 54.6262C15.8048 55.7571 14.236 56.4559 12.5698 56.6171V56.6152ZM9.45895 39.0462C10.5478 40.5795 11.9122 41.8969 13.4829 42.9311C13.7789 42.1233 13.8754 41.2559 13.7641 40.4028C13.6529 39.5497 13.3375 38.736 12.8442 38.0312C11.5142 36.1612 10.1758 36.4651 7.88278 34.7161C7.38278 34.3391 7.14418 34.3471 7.11618 35.0021C7.00618 37.7581 7.24389 40.2931 8.56589 42.1591C9.96589 44.1241 11.883 44.4671 12.936 43.6491C11.3091 42.5327 10.0889 40.918 9.45895 39.0481V39.0462ZM15.0952 44.1672C15.4062 45.2102 16.8418 45.8831 18.6948 45.2321C20.5019 44.4131 21.9929 43.0275 22.9419 41.2851C23.3059 40.7271 23.5902 40.6181 22.3862 40.6241C20.2402 40.6351 19.4918 39.8942 17.7998 40.4902C15.9778 41.1242 15.0141 42.2531 15.0761 43.3671C16.5961 43.4157 18.1131 43.2078 19.5639 42.7521C18.2686 43.6953 16.7022 44.1926 15.1001 44.1692L15.0952 44.1672ZM14.3008 26.8802C15.1718 28.4507 16.3247 29.8476 17.7011 31.0012C18.0687 30.2699 18.2537 29.4606 18.2412 28.6423C18.2286 27.824 18.0187 27.0208 17.6289 26.3011C16.5769 24.3761 15.2709 24.5161 13.2949 22.5961C12.8669 22.1821 12.6341 22.1621 12.5351 22.7801C12.1201 25.3801 12.059 27.8161 13.102 29.7351C14.202 31.7571 15.99 32.2982 17.081 31.6412C15.6633 30.3977 14.6872 28.7277 14.2998 26.8822L14.3008 26.8802ZM19.0698 32.3802C19.2478 33.4052 20.5338 34.2051 22.3608 33.7971C24.1684 33.2244 25.7399 32.0778 26.8369 30.5312C27.2469 30.0422 27.5278 29.9702 26.3838 29.8412C24.3468 29.6082 23.7218 28.8212 22.0498 29.1952C20.2498 29.5952 19.2031 30.5281 19.1391 31.5951C20.5743 31.823 22.0373 31.8061 23.4668 31.5451C22.1299 32.2913 20.587 32.5836 19.0698 32.3782V32.3802ZM20.5449 15.7891C21.183 17.3777 22.1038 18.8376 23.2622 20.0982C23.6971 19.4531 23.9696 18.7125 24.0566 17.9395C24.1437 17.1664 24.0427 16.3838 23.7622 15.6582C23.0092 13.7072 21.7618 13.6741 20.1308 11.6111C19.7798 11.1661 19.5621 11.1171 19.3911 11.6891C18.6701 14.0981 18.3078 16.3892 19.0508 18.3352C19.8388 20.3842 21.4557 21.1191 22.5717 20.6351C21.3883 19.2817 20.677 17.5802 20.5449 15.7871V15.7891ZM24.3608 21.5841C24.3978 22.5761 25.512 23.4942 27.291 23.3392C29.0718 23.0253 30.7019 22.1396 31.9341 20.8161C32.3831 20.4041 32.6558 20.3731 31.5908 20.1061C29.6908 19.6311 29.2031 18.8061 27.5781 18.9481C25.8251 19.0991 24.7199 19.8241 24.5249 20.8211C25.8517 21.2282 27.2384 21.4054 28.625 21.3451C27.2669 21.884 25.7703 21.9672 24.3608 21.5821V21.5841ZM28.1137 6.09115C28.4933 7.67364 29.1523 9.17579 30.0591 10.5271C30.5582 9.98539 30.9188 9.33097 31.1103 8.61967C31.3019 7.90837 31.3188 7.16129 31.1592 6.44215C30.7402 4.49815 29.5782 4.27714 28.3442 2.10514C28.0832 1.63314 27.8832 1.55715 27.6372 2.06715C26.6042 4.22615 25.9259 6.32415 26.3369 8.26715C26.7739 10.3091 28.1852 11.2382 29.3042 10.9472C28.3912 9.4997 27.9731 7.79468 28.1137 6.08915V6.09115ZM30.8452 12.1002C30.7342 13.0372 31.6448 14.0641 33.3388 14.1801C35.0584 14.1458 36.7207 13.5541 38.0752 12.4942C38.5562 12.1722 38.8189 12.1821 37.8559 11.7771C36.1469 11.0461 35.8048 10.2042 34.2558 10.0982C32.5868 9.98115 31.4481 10.4701 31.1191 11.3791C32.3001 11.9665 33.573 12.3463 34.8828 12.5021C33.5288 12.8088 32.1122 12.6677 30.8452 12.1002V12.1002ZM34.3252 5.04914C33.7342 4.30614 34.0748 3.09615 35.4668 2.08915C36.9603 1.20249 38.7013 0.823564 40.4282 1.00915C41.0122 1.02415 41.2359 0.874153 40.6279 1.73815C39.5509 3.27615 39.7062 4.18515 38.4282 5.10815C37.8883 5.54613 37.2321 5.81723 36.5405 5.88827C35.8489 5.95931 35.1518 5.82722 34.5341 5.50814C35.4436 4.4289 36.5034 3.48593 37.6811 2.70814C36.3136 3.05024 35.1194 3.88259 34.3252 5.04714V5.04914ZM36.1411 4.30715C36.1105 4.2779 36.0746 4.25497 36.0351 4.23968C35.9957 4.22439 35.9534 4.21705 35.9111 4.21807C35.8688 4.21909 35.8272 4.22846 35.7885 4.24563C35.7499 4.2628 35.7151 4.28744 35.686 4.31814L34.5122 5.55114C34.1302 5.95114 33.656 6.45115 33.101 7.03315L31.2949 9.15714C30.5999 9.94014 29.9138 10.8672 29.1548 11.8672C28.7778 12.3672 28.373 12.8842 27.976 13.4322C27.594 13.9922 27.197 14.5722 26.789 15.1712C26.381 15.7702 25.9441 16.3801 25.5361 17.0341C25.1281 17.6881 24.717 18.3671 24.291 19.0601C23.406 20.4301 22.623 21.9531 21.748 23.5111C21.298 24.2841 20.9229 25.1111 20.5029 25.9441C20.0829 26.7771 19.6549 27.6192 19.2549 28.4942C18.4909 30.2622 17.6222 32.0581 16.9092 33.9791C15.3161 37.9693 13.9609 42.0505 12.851 46.2011C11.6758 50.6484 10.7649 55.1613 10.123 59.7161C9.50832 64.4329 9.1896 69.1835 9.16892 73.9401C9.21583 78.7075 9.59596 83.4657 10.3061 88.1801C10.4861 89.3461 10.7392 90.4961 10.9502 91.6471C11.0608 92.2225 11.1707 92.7962 11.2807 93.3682C11.4227 93.9335 11.5653 94.4968 11.708 95.0582C11.998 96.1792 12.2608 97.3022 12.5698 98.4032C12.9171 99.4945 13.2623 100.577 13.605 101.65C13.92 102.734 14.3411 103.771 14.7441 104.803C15.1471 105.835 15.522 106.869 15.959 107.862C16.417 108.848 16.8702 109.823 17.3188 110.786C17.5478 111.265 17.758 111.751 17.997 112.217C18.236 112.683 18.497 113.134 18.75 113.588C19.248 114.496 19.7397 115.391 20.2251 116.274C20.7361 117.142 21.2939 117.963 21.8139 118.788C22.3509 119.602 22.8341 120.434 23.3921 121.188C23.9501 121.942 24.5049 122.688 25.0449 123.412C26.0869 124.897 27.2448 126.191 28.3198 127.443C28.8658 128.064 29.3697 128.692 29.9057 129.26L31.5058 130.879C33.5228 133.031 35.5172 134.65 37.0952 136.058C37.8702 136.78 38.6559 137.304 39.2949 137.815L40.9531 139.079L42.334 140.131L42.354 140.146C42.6956 140.398 43.1232 140.504 43.5429 140.441C43.9626 140.377 44.3398 140.15 44.5918 139.808C44.8437 139.467 44.9501 139.039 44.8867 138.619C44.8233 138.199 44.5955 137.822 44.2539 137.57L44.166 137.506L42.8208 136.516C42.3828 136.193 41.843 135.795 41.205 135.327C40.567 134.859 39.8051 134.354 39.0571 133.672C37.5191 132.344 35.5691 130.819 33.5991 128.782C33.0931 128.288 32.5709 127.778 32.0322 127.251C31.5052 126.714 31.012 126.118 30.479 125.53C29.3417 124.311 28.2681 123.034 27.2622 121.704C26.7288 121.014 26.1851 120.31 25.6318 119.591C25.0818 118.869 24.6052 118.076 24.0742 117.3C23.5602 116.513 23.0069 115.731 22.5009 114.9C22.0189 114.057 21.5298 113.201 21.0332 112.332C20.7872 111.898 20.5378 111.461 20.2851 111.02C20.0441 110.574 19.8349 110.108 19.6069 109.648C19.1569 108.725 18.7025 107.791 18.2431 106.848C17.8041 105.895 17.433 104.896 17.018 103.907C16.603 102.918 16.1828 101.916 15.8618 100.869C15.5118 99.8325 15.1595 98.7875 14.8042 97.7342C14.4852 96.6702 14.2131 95.5832 13.9121 94.4972C13.7654 93.9525 13.6171 93.4065 13.4677 92.8592C13.3517 92.3045 13.2355 91.7481 13.1181 91.1901C12.8931 90.0721 12.6271 88.9552 12.4331 87.8202C11.6612 83.2218 11.2112 78.5752 11.0869 73.9141C11.0281 69.2414 11.2621 64.5696 11.7871 59.9261C12.3434 55.4267 13.166 50.9642 14.2509 46.5621C15.276 42.4441 16.5447 38.3906 18.0508 34.4231C18.7218 32.5121 19.5508 30.7232 20.2778 28.9622C20.6588 28.0892 21.0782 27.2531 21.4702 26.4201C21.8622 25.5871 22.2301 24.7632 22.6611 23.9922C23.5011 22.4382 24.251 20.9151 25.101 19.5471C25.5124 18.8531 25.9121 18.1778 26.3008 17.5211C26.6928 16.8661 27.1207 16.2611 27.5097 15.6571C27.8987 15.0531 28.2867 14.4761 28.6557 13.9161C29.0247 13.3561 29.4319 12.8512 29.7959 12.3482C30.5319 11.3482 31.1962 10.4141 31.8652 9.63615L33.6069 7.51315L34.9931 6.00814L36.146 4.75515C36.1756 4.725 36.199 4.68928 36.2148 4.65006C36.2306 4.61084 36.2387 4.56888 36.2383 4.52661C36.2378 4.48433 36.2285 4.44256 36.2119 4.4037C36.1952 4.36483 36.1714 4.32965 36.1411 4.30015V4.30715Z" fill="white"/>
</svg>
